<svg width="105" height="90" viewBox="0 0 105 90" fill="none" xmlns="http://www.w3.org/2000/svg">
<g filter="url(#filter0_d_63_10)">
<path d="M29.2011 19.049L35.441 19.0745L35.3629 38.1843L59.2177 38.2818L59.2958 19.172L65.5358 19.1975L65.3477 65.2171L59.1077 65.1916L59.1938 44.1318L35.339 44.0343L35.2529 65.0941L29.013 65.0686L29.2011 19.049Z" fill="white" fill-opacity="0.5"/>
<path d="M35.371 19.0742L19.1861 19.008C16.2395 18.996 13.8112 19.3977 11.9011 20.2133C9.99131 20.9855 8.49216 21.9977 7.4037 23.2499C6.27208 24.4586 5.48642 25.8421 5.04671 27.4003C4.60718 28.9152 4.3845 30.3876 4.37865 31.8176C4.37281 33.2476 4.58336 34.7435 5.01031 36.3052C5.43744 37.8237 6.21177 39.2135 7.33329 40.4748C8.41166 41.6925 9.90248 42.717 11.8058 43.5481C13.7092 44.3359 16.1343 44.7358 19.0809 44.7478L29.0258 44.7885L28.943 65.0683L35.1829 65.0938L35.371 19.0742ZM29.0482 39.3285L20.8582 39.295C19.6449 39.2901 18.4536 39.1985 17.2843 39.0204C16.0719 38.7988 15.0117 38.4261 14.1039 37.9024C13.1527 37.3785 12.3973 36.6388 11.8379 35.6831C11.2787 34.6842 11.0022 33.4047 11.0086 31.8447C11.015 30.2847 11.3018 29.0292 11.869 28.0782C12.4364 27.0839 13.1978 26.3286 14.1533 25.8125C15.0654 25.2963 16.1285 24.9539 17.3425 24.7856C18.5134 24.5737 19.7055 24.4702 20.9188 24.4752L29.1087 24.5086L29.0482 39.3285Z" fill="white" fill-opacity="0.5"/>
<path d="M60.2008 19.1757L66.4408 19.2012L66.3595 39.091L66.8795 39.0931L87.3056 19.2865L96.0155 19.3221L73.6988 40.486L97.3224 65.3478L88.2225 65.3106L66.8667 42.2131L66.3467 42.211L66.2527 65.2208L60.0127 65.1953L60.2008 19.1757Z" fill="white" fill-opacity="0.5"/>
</g>
<g filter="url(#filter1_d_63_10)">
<path d="M32.201 19.0612L38.441 19.0867L38.3629 38.1966L62.2177 38.2941L62.2958 19.1842L68.5357 19.2097L68.3476 65.2294L62.1077 65.2039L62.1938 44.144L38.339 44.0465L38.2529 65.1064L32.0129 65.0809L32.201 19.0612Z" fill="white"/>
<path d="M38.371 19.0865L22.1861 19.0203C19.2395 19.0083 16.8111 19.41 14.9011 20.2255C12.9913 20.9977 11.4921 22.01 10.4037 23.2622C9.27205 24.4709 8.48639 25.8544 8.04668 27.4126C7.60715 28.9275 7.38447 30.3999 7.37862 31.8299C7.37278 33.2599 7.58333 34.7558 8.01028 36.3175C8.43741 37.8359 9.21174 39.2258 10.3333 40.487C11.4116 41.7048 12.9025 42.7292 14.8057 43.5603C16.7092 44.3481 19.1343 44.7481 22.0809 44.7601L32.0258 44.8007L31.9429 65.0806L38.1829 65.1061L38.371 19.0865ZM32.0481 39.3408L23.8582 39.3073C22.6449 39.3024 21.4536 39.2108 20.2843 39.0327C19.0719 38.8111 18.0117 38.4384 17.1038 37.9147C16.1526 37.3908 15.3973 36.651 14.8379 35.6954C14.2786 34.6965 14.0022 33.417 14.0086 31.857C14.0149 30.297 14.3017 29.0415 14.869 28.0905C15.4364 27.0961 16.1978 26.3409 17.1532 25.8248C18.0654 25.3085 19.1284 24.9662 20.3425 24.7978C21.5133 24.5859 22.7054 24.4825 23.9188 24.4874L32.1087 24.5209L32.0481 39.3408Z" fill="white"/>
<path d="M63.2008 19.1879L69.4407 19.2135L69.3594 39.1033L69.8794 39.1054L90.3056 19.2987L99.0155 19.3343L76.6988 40.4983L100.322 65.3601L91.2224 65.3229L69.8667 42.2254L69.3467 42.2233L69.2526 65.2331L63.0127 65.2076L63.2008 19.1879Z" fill="white"/>
</g>
<defs>
<filter id="filter0_d_63_10" x="0.243164" y="18.9477" width="101.267" height="54.4001" filterUnits="userSpaceOnUse" color-interpolation-filters="sRGB">
<feFlood flood-opacity="0" result="BackgroundImageFix"/>
<feColorMatrix in="SourceAlpha" type="matrix" values="0 0 0 0 0 0 0 0 0 0 0 0 0 0 0 0 0 0 127 0" result="hardAlpha"/>
<feOffset dy="4"/>
<feGaussianBlur stdDeviation="2"/>
<feComposite in2="hardAlpha" operator="out"/>
<feColorMatrix type="matrix" values="0 0 0 0 0 0 0 0 0 0 0 0 0 0 0 0 0 0 0.25 0"/>
<feBlend mode="normal" in2="BackgroundImageFix" result="effect1_dropShadow_63_10"/>
<feBlend mode="normal" in="SourceGraphic" in2="effect1_dropShadow_63_10" result="shape"/>
</filter>
<filter id="filter1_d_63_10" x="3.24313" y="18.96" width="101.267" height="54.4001" filterUnits="userSpaceOnUse" color-interpolation-filters="sRGB">
<feFlood flood-opacity="0" result="BackgroundImageFix"/>
<feColorMatrix in="SourceAlpha" type="matrix" values="0 0 0 0 0 0 0 0 0 0 0 0 0 0 0 0 0 0 127 0" result="hardAlpha"/>
<feOffset dy="4"/>
<feGaussianBlur stdDeviation="2"/>
<feComposite in2="hardAlpha" operator="out"/>
<feColorMatrix type="matrix" values="0 0 0 0 0 0 0 0 0 0 0 0 0 0 0 0 0 0 0.25 0"/>
<feBlend mode="normal" in2="BackgroundImageFix" result="effect1_dropShadow_63_10"/>
<feBlend mode="normal" in="SourceGraphic" in2="effect1_dropShadow_63_10" result="shape"/>
</filter>
</defs>
</svg>
