<?xml version="1.0" encoding="iso-8859-1"?>
<!-- Generator: Adobe Illustrator 19.0.0, SVG Export Plug-In . SVG Version: 6.00 Build 0)  -->
<svg version="1.1" id="Layer_1" xmlns="http://www.w3.org/2000/svg" xmlns:xlink="http://www.w3.org/1999/xlink" x="0px" y="0px"
	 viewBox="0 0 512.001 512.001" style="enable-background:new 0 0 512.001 512.001;" xml:space="preserve">
<path style="fill:#77AAD4;" d="M456.291,423.025L456.291,423.025c0-22.076-17.896-39.972-39.972-39.972
	c-22.076,0-39.972,17.896-39.972,39.972v7.995c0,0.395,0.103,0.762,0.116,1.154c-2.603-0.684-5.293-1.154-8.11-1.154
	c-17.661,0-31.978,14.316-31.978,31.977c0,22.076-17.896,39.972-39.972,39.972c-22.076,0-39.972-17.896-39.972-39.972l-1.309,10.166
	c-4.497,17.151-20.101,29.806-38.663,29.806c-22.076,0-39.972-17.896-39.972-39.972c0-17.66-14.317-31.977-31.977-31.977
	c-2.817,0-5.508,0.468-8.111,1.154c0.014-0.392,0.116-0.759,0.116-1.154v-7.995c0-22.076-17.896-39.972-39.972-39.972
	s-39.972,17.896-39.972,39.972l0,0c-28.604,2.49-48.578,26.71-48.578,55.96v31.978h242.264h6.083H504.87v-31.978
	C504.87,449.737,484.896,425.515,456.291,423.025z"/>
<polygon style="fill:#1D71B8;" points="216.46,127.234 256.432,23.306 296.404,127.234 "/>
<polyline style="fill:#77AAD4;" points="256.432,23.306 216.46,127.234 256.432,127.234 "/>
<rect x="216.461" y="127.232" style="fill:#FAC15C;" width="79.946" height="239.827"/>
<rect x="256.434" y="127.232" style="fill:#F9B233;" width="39.973" height="239.827"/>
<g>
	<rect x="208.467" y="383.048" style="fill:#1D1D1B;" width="95.935" height="15.989"/>
	<rect x="232.451" y="407.043" style="fill:#1D1D1B;" width="47.966" height="15.989"/>
	<rect x="248.44" y="431.016" style="fill:#1D1D1B;" width="15.988" height="15.989"/>
	<path style="fill:#1D1D1B;" d="M463.007,416.817c-3.056-23.525-23.207-41.758-47.55-41.758c-26.449,0-47.966,21.517-47.966,47.966
		v0.022c-21.641,0.462-39.107,18.198-39.107,39.949c0,17.632-14.345,31.978-31.977,31.978c-17.633,0-31.978-14.345-31.978-31.978
		h-15.989c0,17.632-14.345,31.978-31.977,31.978s-31.977-14.345-31.977-31.978c0-22.04-17.932-39.971-39.972-39.971
		c0-26.449-21.518-47.966-47.966-47.966c-24.343,0-44.495,18.232-47.55,41.758C20.925,423.572,0,448.874,0,478.986v31.978h15.989
		v-31.978c0-26.448,21.517-47.965,47.966-47.965s47.966,21.517,47.966,47.965h15.989c0-9.105-1.926-17.766-5.371-25.614
		c3.763-8.611,12.321-14.357,21.972-14.357c13.224,0,23.983,10.759,23.983,23.983c0,26.449,21.517,47.966,47.966,47.966
		c16.668,0,31.372-8.55,39.972-21.492c8.6,12.942,23.304,21.492,39.972,21.492c26.449,0,47.966-21.517,47.966-47.966
		c0-13.224,10.759-23.983,23.983-23.983c9.297,0,17.569,5.341,21.528,13.427c-3.708,8.092-5.792,17.077-5.792,26.543h15.989
		c0-26.448,21.517-47.965,47.966-47.965s47.966,21.517,47.966,47.965v31.978h15.989v-31.978
		C512,448.874,491.075,423.572,463.007,416.817z M113.159,438.179c-11.419-13.745-28.479-22.631-47.59-23.108
		c3.545-13.797,16.088-24.025,30.976-24.025c17.633,0,31.978,14.345,31.978,31.978v3.332
		C122.511,428.979,117.228,433.044,113.159,438.179z M399.284,437.668c-4.208-5.132-9.643-9.153-15.806-11.671v-2.972
		c0-17.632,14.345-31.978,31.978-31.978c14.887,0,27.431,10.227,30.976,24.025C427.56,415.544,410.699,424.218,399.284,437.668z"/>
</g>
<g>
	<rect x="248.44" y="215.173" style="fill:#FFFFFF;" width="15.989" height="15.989"/>
	<rect x="248.44" y="247.151" style="fill:#FFFFFF;" width="15.989" height="15.989"/>
	<rect x="248.44" y="279.129" style="fill:#FFFFFF;" width="15.989" height="15.989"/>
	<rect x="248.44" y="311.108" style="fill:#FFFFFF;" width="15.989" height="15.989"/>
</g>
<path style="fill:#1D1D1B;" d="M256.432,1.036l-47.966,124.711v249.31h95.933V125.749L256.432,1.036z M228.1,119.239l28.332-73.663
	l28.332,73.663H228.1z M248.438,135.228v63.956h15.989v-63.956h23.984v223.843h-23.984v-15.989h-15.989v15.989h-23.983V135.228
	H248.438z"/>
<g>
</g>
<g>
</g>
<g>
</g>
<g>
</g>
<g>
</g>
<g>
</g>
<g>
</g>
<g>
</g>
<g>
</g>
<g>
</g>
<g>
</g>
<g>
</g>
<g>
</g>
<g>
</g>
<g>
</g>
</svg>
